{"title":"Six.Nations.2014.Rugby.Union-France.v.England-2014.02.01.hdtv.x2","uid":9555019,"size":1562798473,"categoryP":"video","categoryS":"tv_shows","magnet":"?xt=urn:btih:86d04ac61aec8f000659beb009fdc38e05d3e6e7&amp;dn=Six.Nations.2014.Rugby.Union-France.v.England-2014.02.01.hdtv.x2&amp;tr=udp%3A%2F%2Ftracker.openbittorrent.com%3A80&amp;tr=udp%3A%2F%2Fopen.demonii.com%3A1337&amp;tr=udp%3A%2F%2Ftracker.coppersurfer.tk%3A6969&amp;tr=udp%3A%2F%2Fexodus.desync.com%3A6969","seeders":1,"leechers":0,"uploader":"rugbybill","files":2,"time":1391351774,"description":"SPORT: Six Nations Rugby Union - France v England.\nOn: BBC 1 HD   \nDate: Saturday 1st February 2014\nTime: 16:30 to 18:55 \n\nJohn Inverdale and studio guests Sir Clive Woodward, Jeremy Guscott and Thomas Castaignede are at the Stade de France as France and England get their 2014 Six Nations tournaments underway. Both countries suffered disappointment in 2013; England's 30-3 record defeat to Wales on the final weekend saw them not only miss out on the Six Nations title but also the Grand Slam. France began the 2013 competition as tournament favourites but ended it with the wooden spoon, their first since 1969. England have a good recent record against Les Blues, winning six of their last eight meetings, including three of their last four at the Stade de France. Eddie Butler and Brian Moore provide the commentary.\n\nFull coverage\n\n\nGeneral\nComplete name                            : 2014.02.01.6N.France.v.England.hdtv.x264.mp4\nFormat                                   : MPEG-4\nFormat profile                           : Base Media\nFile size                                : 1.46 GiB\nDuration                                 : 2h 25mn\nOverall bit rate mode                    : Variable\nOverall bit rate                         : 1 430 Kbps\n\nVideo\nID                                       : 1\nFormat                                   : AVC\nFormat/Info                              : Advanced Video Codec\nFormat profile                           : &lt;a class=&quot;__cf_email__&quot; href=&quot;/cdn-cgi/l/email-protection&quot; data-cfemail=&quot;672f0e000f272b544957&quot;&gt;[email&amp;#160;protected]&lt;/a&gt;&lt;script cf-hash='f9e31' type=&quot;text/javascript&quot;&gt;\n/* &lt;![CDATA[ */!function(){try{var t=&quot;currentScript&quot;in document?document.currentScript:function(){for(var t=document.getElementsByTagName(&quot;script&quot;),e=t.length;e--;)if(t[e].getAttribute(&quot;cf-hash&quot;))return t[e]}();if(t&amp;&amp;t.previousSibling){var e,r,n,i,c=t.previousSibling,a=c.getAttribute(&quot;data-cfemail&quot;);if(a){for(e=&quot;&quot;,r=parseInt(a.substr(0,2),16),n=2;a.length-n;n+=2)i=parseInt(a.substr(n,2),16)^r,e+=String.fromCharCode(i);e=document.createTextNode(e),c.parentNode.replaceChild(e,c)}}}catch(u){}}();/* ]]&gt; */&lt;/script&gt;\nFormat settings, CABAC                   : Yes\nFormat settings, ReFrames                : 5 frames\nCodec ID                                 : avc1\nCodec ID/Info                            : Advanced Video Coding\nDuration                                 : 2h 25mn\nBit rate                                 : 1 300 Kbps\nMaximum bit rate                         : 5 850 Kbps\nWidth                                    : 704 pixels\nHeight                                   : 400 pixels\nDisplay aspect ratio                     : 16:9\nFrame rate mode                          : Constant\nFrame rate                               : 25.000 fps\nColor space                              : YUV\nChroma subsampling                       : 4:2:0\nBit depth                                : 8 bits\nScan type                                : Progressive\nBits/(Pixel*Frame)                       : 0.185\nStream size                              : 1.32 GiB (91%)\nWriting library                          : x264 core 138 r2358 9e941d1\nEncoding settings                        : cabac=1 / ref=5 / deblock=1:0:0 / analyse=0x3:0x113 / me=umh / subme=8 / psy=1 / psy_rd=1.00:0.00 / mixed_ref=1 / me_range=16 / chroma_me=1 / trellis=1 / 8x8dct=1 / cqm=0 / deadzone=21,11 / fast_pskip=1 / chroma_qp_offset=-2 / threads=6 / lookahead_threads=1 / sliced_threads=0 / nr=0 / decimate=1 / interlaced=0 / bluray_compat=0 / constrained_intra=0 / bframes=3 / b_pyramid=2 / b_adapt=2 / b_bias=0 / direct=3 / weightb=1 / open_gop=0 / weightp=2 / keyint=250 / keyint_min=25 / scenecut=40 / intra_refresh=0 / rc_lookahead=50 / rc=abr / mbtree=1 / bitrate=1300 / ratetol=1.0 / qcomp=0.60 / qpmin=0 / qpmax=69 / qpstep=4 / ip_ratio=1.40 / aq=1:1.00\n\nAudio\nID                                       : 2\nFormat                                   : AAC\nFormat/Info                              : Advanced Audio Codec\nFormat profile                           : LC\nCodec ID                                 : 40\nDuration                                 : 2h 25mn\nBit rate mode                            : Variable\nBit rate                                 : 128 Kbps\nMaximum bit rate                         : 133 Kbps\nChannel(s)                               : 2 channels\nChannel positions                        : Front: L R\nSampling rate                            : 48.0 KHz\nCompression mode                         : Lossy\nStream size                              : 133 MiB (9%)\nLanguage                                 : English\n","torrent":{"xt":"urn:btih:86d04ac61aec8f000659beb009fdc38e05d3e6e7","amp;dn":"Six.Nations.2014.Rugby.Union-France.v.England-2014.02.01.hdtv.x2","amp;tr":["udp%3A%2F%2Ftracker.openbittorrent.com%3A80","udp%3A%2F%2Fopen.demonii.com%3A1337","udp%3A%2F%2Ftracker.coppersurfer.tk%3A6969","udp%3A%2F%2Fexodus.desync.com%3A6969"],"infoHash":"86d04ac61aec8f000659beb009fdc38e05d3e6e7","infoHashBuffer":{"type":"Buffer","data":[134,208,74,198,26,236,143,0,6,89,190,176,9,253,195,142,5,211,230,231]},"announce":[],"urlList":[]}}